<?xml version="1.0" encoding="UTF-8" standalone="no"?>
<!-- Created with Inkscape (http://www.inkscape.org/) -->

<svg
   width="384.18756mm"
   height="145.36859mm"
   viewBox="0 0 384.18756 145.36859"
   version="1.1"
   id="svg5"
   inkscape:version="1.1 (c68e22c387, 2021-05-23)"
   sodipodi:docname="ㄱㅇㄷ.svg"
   xmlns:inkscape="http://www.inkscape.org/namespaces/inkscape"
   xmlns:sodipodi="http://sodipodi.sourceforge.net/DTD/sodipodi-0.dtd"
   xmlns="http://www.w3.org/2000/svg"
   xmlns:svg="http://www.w3.org/2000/svg">
  <sodipodi:namedview
     id="namedview7"
     pagecolor="#ffffff"
     bordercolor="#666666"
     borderopacity="1.0"
     inkscape:pageshadow="2"
     inkscape:pageopacity="0.0"
     inkscape:pagecheckerboard="0"
     inkscape:document-units="mm"
     showgrid="false"
     fit-margin-top="0"
     fit-margin-left="0"
     fit-margin-right="0"
     fit-margin-bottom="0"
     inkscape:zoom="0.16415919"
     inkscape:cx="-959.43456"
     inkscape:cy="322.85734"
     inkscape:window-width="1523"
     inkscape:window-height="1080"
     inkscape:window-x="2779"
     inkscape:window-y="0"
     inkscape:window-maximized="0"
     inkscape:current-layer="layer1" />
  <defs
     id="defs2" />
  <g
     inkscape:label="레이어 1"
     inkscape:groupmode="layer"
     id="layer1"
     transform="translate(-660.36955,-655.44986)">
    <g
       id="g747"
       transform="matrix(0.38512278,0,0,0.38512278,793.59152,660.25262)">
      <path
         style="fill:#f26e20;stroke-width:0.264583"
         d="m -300.13267,101.19631 c -12.10642,-16.69143 -45.09791,-62.347362 -45.48228,-62.94155 -0.43006,-0.664826 -0.42474,-0.71356 0.13229,-1.211286 0.60619,-0.54165 66.68623,-48.307455 68.01729,-49.166141 0.75833,-0.489211 0.76453,-0.488428 1.32292,0.167019 1.53661,1.803719 49.25555,68.049794 49.32477,68.475384 0.0602,0.370068 -0.87175,1.183151 -3.70416,3.231711 -52.03168,37.632233 -65.12351,47.067263 -65.30944,47.067263 -0.12289,0 -2.05852,-2.53008 -4.30139,-5.6224 z"
         id="path751" />
      <path
         style="fill:#285ba9;stroke-width:0.264583"
         d="m 524.44222,364.85443 c -1.64272,-0.0465 -2.92653,-0.18196 -2.8529,-0.30107 0.0736,-0.11909 -1.20171,-0.29689 -2.83408,-0.39508 -11.50814,-0.69215 -25.92256,-3.43818 -36.37426,-6.92946 -9.80853,-3.27647 -19.58173,-8.09289 -26.65812,-13.13768 -10.37304,-7.39492 -18.96539,-17.04385 -24.852,-27.90796 -7.34496,-13.55555 -11.38999,-28.93414 -12.58244,-47.83635 -0.21614,-3.42593 -0.27686,-26.74167 -0.2164,-83.07916 l 0.084,-78.31667 h 40.61355 40.61354 l 0.14721,76.99375 c 0.15195,79.47692 0.14039,78.66298 1.2083,85.06354 2.67759,16.04838 10.71206,24.73532 25.36741,27.42751 3.69747,0.67921 13.67917,0.6786 17.3302,0 8.76401,-1.6315 15.01728,-5.36356 19.35502,-11.55142 3.54062,-5.05079 5.39056,-10.77346 6.62863,-20.50521 0.21947,-1.72516 0.32851,-23.72547 0.39568,-79.84896 0.0728,-60.78699 0.16246,-77.49384 0.41659,-77.58908 0.17814,-0.0668 18.57021,-0.15113 40.87127,-0.1875 l 40.54743,-0.0672 -3e-5,79.39998 c 0,43.67 -0.0774,80.66465 -0.17195,82.21038 -0.0946,1.54572 -0.27319,2.74783 -0.39688,2.67139 -0.12372,-0.0765 -0.22632,0.43354 -0.22804,1.13337 -0.004,1.6688 -0.87929,8.64044 -1.58798,12.64946 -2.64731,14.9755 -8.45854,29.51512 -15.96345,39.94034 -3.87054,5.3766 -10.42477,12.25552 -15.66926,16.44547 -12.07397,9.64615 -27.99046,16.56921 -46.68036,20.30417 -6.23403,1.24582 -14.71983,2.38181 -20.29812,2.7173 -1.63237,0.0982 -2.91671,0.26138 -2.85411,0.36269 0.26329,0.42598 -13.2628,0.61907 -23.3585,0.33346 z m -714.78373,-3.68295 c -0.097,-0.097 -0.17639,-24.53034 -0.17639,-54.29628 0,-46.35051 0.0531,-54.06428 0.36975,-53.73246 0.35669,0.37375 77.64657,107.20308 78.04597,107.87441 0.15705,0.26397 -7.70065,0.33073 -38.93309,0.33073 -21.52142,0 -39.20922,-0.0794 -39.30624,-0.1764 z m 183.9014385,-0.28662 c -1.460209,-1.61444 -93.8202085,-129.64558 -93.7220185,-129.9192 0.067,-0.18673 19.068533,-28.19618 42.225634,-62.24323 l 42.103782,-61.90372 h 45.213641 c 24.8675,0 45.213641,0.0596 45.213641,0.13252 0,0.0729 -18.990469,27.99405 -42.201042,62.04705 -23.2105735,34.05299 -42.2010426,62.13651 -42.2010426,62.40781 0,0.27131 21.0740626,29.56538 46.8312506,65.09797 25.757188,35.53256 46.831251,64.65848 46.831251,64.72425 0,0.0657 -20.222184,0.11957 -44.938157,0.11957 -42.4623184,0 -44.9612287,-0.0254 -45.3569395,-0.46302 z M 108.31951,360.2243 c -0.0692,-0.18241 -0.0954,-57.24351 -0.0582,-126.80247 l 0.0677,-126.47083 40.5007,-0.067 40.50067,-0.067 1.2927,2.05136 c 3.76672,5.9774 41.5367,64.93786 85.63624,133.68157 4.53853,7.07484 8.25465,12.60507 8.50249,12.65317 0.40963,0.0795 0.44487,-5.07243 0.50684,-74.08334 l 0.0666,-74.16879 h 38.49687 38.49688 v 126.73542 126.73542 h -40.44093 -40.4409 l -47.55468,-71.5698 c -26.90069,-40.48557 -47.74615,-71.6069 -47.99557,-71.65524 -0.4105,-0.0796 -0.44551,4.85852 -0.50755,71.56978 l -0.0666,71.65526 -38.4387,0.067 c -30.61187,0.0534 -38.4643,0 -38.56453,-0.26458 z M -150.9067,161.3119 c -21.36077,-29.54001 -38.90561,-53.88592 -38.98854,-54.10202 -0.133,-0.3466 4.46131,-0.38502 38.97005,-0.3259 l 39.12084,0.067 0.0668,54.04115 c 0.0367,29.72263 -0.0228,54.03838 -0.13229,54.035 -0.10949,-0.003 -17.67607,-24.17524 -39.03684,-53.71525 z"
         id="path749" />
    </g>
  </g>
</svg>
